<svg width="1006" height="260" viewBox="0 0 1006 260" fill="none" xmlns="http://www.w3.org/2000/svg">
<g clip-path="url(#clip0)">
<path d="M275.524 39.52V221H239.124V39.52H275.524ZM378.307 74.88C395.467 74.88 409.334 80.34 419.907 91.26C430.48 102.007 435.767 117.087 435.767 136.5V221H399.367V141.44C399.367 130 396.507 121.247 390.787 115.18C385.067 108.94 377.267 105.82 367.387 105.82C357.334 105.82 349.36 108.94 343.467 115.18C337.747 121.247 334.887 130 334.887 141.44V221H298.487V76.96H334.887V94.9C339.74 88.66 345.894 83.8067 353.347 80.34C360.974 76.7 369.294 74.88 378.307 74.88ZM448.021 148.46C448.021 133.9 450.881 120.987 456.601 109.72C462.495 98.4533 470.468 89.7867 480.521 83.72C490.575 77.6533 501.755 74.62 514.061 74.62C523.421 74.62 532.348 76.7 540.841 80.86C549.335 84.8467 556.095 90.22 561.121 96.98V28.6H598.041V221H561.121V199.68C556.615 206.787 550.288 212.507 542.141 216.84C533.995 221.173 524.548 223.34 513.801 223.34C501.668 223.34 490.575 220.22 480.521 213.98C470.468 207.74 462.495 198.987 456.601 187.72C450.881 176.28 448.021 163.193 448.021 148.46ZM561.381 148.98C561.381 140.14 559.648 132.6 556.181 126.36C552.715 119.947 548.035 115.093 542.141 111.8C536.248 108.333 529.921 106.6 523.161 106.6C516.401 106.6 510.161 108.247 504.441 111.54C498.721 114.833 494.041 119.687 490.401 126.1C486.935 132.34 485.201 139.793 485.201 148.46C485.201 157.127 486.935 164.753 490.401 171.34C494.041 177.753 498.721 182.693 504.441 186.16C510.335 189.627 516.575 191.36 523.161 191.36C529.921 191.36 536.248 189.713 542.141 186.42C548.035 182.953 552.715 178.1 556.181 171.86C559.648 165.447 561.381 157.82 561.381 148.98ZM754.492 145.86C754.492 151.06 754.146 155.74 753.452 159.9H648.152C649.019 170.3 652.659 178.447 659.072 184.34C665.486 190.233 673.372 193.18 682.732 193.18C696.252 193.18 705.872 187.373 711.592 175.76H750.852C746.692 189.627 738.719 201.067 726.932 210.08C715.146 218.92 700.672 223.34 683.512 223.34C669.646 223.34 657.166 220.307 646.072 214.24C635.152 208 626.572 199.247 620.332 187.98C614.266 176.713 611.232 163.713 611.232 148.98C611.232 134.073 614.266 120.987 620.332 109.72C626.399 98.4533 634.892 89.7867 645.812 83.72C656.732 77.6533 669.299 74.62 683.512 74.62C697.206 74.62 709.426 77.5667 720.172 83.46C731.092 89.3533 739.499 97.76 745.392 108.68C751.459 119.427 754.492 131.82 754.492 145.86ZM716.792 135.46C716.619 126.1 713.239 118.647 706.652 113.1C700.066 107.38 692.006 104.52 682.472 104.52C673.459 104.52 665.832 107.293 659.592 112.84C653.526 118.213 649.799 125.753 648.412 135.46H716.792ZM847.881 74.88C865.041 74.88 878.908 80.34 889.481 91.26C900.054 102.007 905.341 117.087 905.341 136.5V221H868.941V141.44C868.941 130 866.081 121.247 860.361 115.18C854.641 108.94 846.841 105.82 836.961 105.82C826.908 105.82 818.934 108.94 813.041 115.18C807.321 121.247 804.461 130 804.461 141.44V221H768.061V76.96H804.461V94.9C809.314 88.66 815.468 83.8067 822.921 80.34C830.548 76.7 838.868 74.88 847.881 74.88ZM969.336 106.86V176.54C969.336 181.393 970.462 184.947 972.716 187.2C975.142 189.28 979.129 190.32 984.676 190.32H1001.58V221H978.696C948.016 221 932.676 206.093 932.676 176.28V106.86H915.516V76.96H932.676V41.34H969.336V76.96H1001.58V106.86H969.336Z" fill="black"/>
<mask id="mask0" mask-type="alpha" maskUnits="userSpaceOnUse" x="4" y="52" width="140" height="156">
<path d="M4 129.514V73.5156C4.00388 69.7368 5.00188 66.0256 6.89379 62.7545C8.7857 59.4834 11.5049 56.7677 14.7784 54.88C18.0519 52.9923 21.7644 51.999 25.5432 52C29.322 52.001 33.034 52.9961 36.3066 54.8855L84.7664 82.8845L133.269 110.884C136.533 112.777 139.242 115.494 141.126 118.764C143.009 122.034 144 125.74 144 129.514C144 133.287 143.009 136.994 141.126 140.263C139.242 143.533 136.533 146.251 133.269 148.144L84.7664 176.143L36.2635 204.142C32.9921 206.021 29.2846 207.007 25.5121 207.003C21.7397 206.998 18.0345 206.003 14.7676 204.116C11.5006 202.23 8.78651 199.518 6.89682 196.253C5.00715 192.988 4.00821 189.284 4 185.512V129.514Z" fill="black"/>
</mask>
<g mask="url(#mask0)">
<path d="M4 129.514V73.5156C4.00388 69.7368 5.00188 66.0256 6.89379 62.7545C8.7857 59.4834 11.5049 56.7677 14.7784 54.88C18.0519 52.9923 21.7644 51.999 25.5432 52C29.322 52.001 33.034 52.9961 36.3066 54.8855L84.7664 82.8845L133.269 110.884C136.533 112.777 139.242 115.494 141.126 118.764C143.009 122.034 144 125.74 144 129.514C144 133.287 143.009 136.994 141.126 140.263C139.242 143.533 136.533 146.251 133.269 148.144L84.7664 176.143L36.2635 204.142C32.9921 206.021 29.2846 207.007 25.5121 207.003C21.7397 206.998 18.0345 206.003 14.7676 204.116C11.5006 202.23 8.78651 199.518 6.89682 196.253C5.00714 192.988 4.00822 189.284 4 185.512V129.514Z" fill="#2F80ED"/>
<rect x="50.3555" y="48" width="146" height="159" fill="black" fill-opacity="0.4"/>
<rect x="91.3555" y="57" width="146" height="159" fill="black" fill-opacity="0.4"/>
</g>
</g>
<defs>
<clipPath id="clip0">
<rect width="1006" height="260" fill="white"/>
</clipPath>
</defs>
</svg>
